# WaveFront *.obj file (generated by CINEMA 4D)

mtllib ./jianzhu.mtl

v 308.17431640625 -409.16485595703125 1132.873291015625
v 308.17431640625 670.83514404296875 1132.873291015625
v 308.17431640625 -409.16485595703125 -1271.12646484375
v 308.17431640625 670.83514404296875 -1271.12646484375
v -963.82568359375 -409.16485595703125 -1271.12646484375
v -963.82568359375 670.83514404296875 -1271.12646484375
v -963.82568359375 -409.16485595703125 1132.873291015625
v -963.82568359375 670.83514404296875 1132.873291015625
v 284.17431640625 670.83514404296875 1108.873291015625
v 284.17431640625 670.83514404296875 -1247.12646484375
v -939.82568359375 670.83514404296875 -1247.12646484375
v -939.82568359375 670.83514404296875 1108.873291015625
v 284.17431640625 610.83514404296875 1108.873291015625
v 284.17431640625 610.83514404296875 -1247.12646484375
v -939.82568359375 610.83514404296875 -1247.12646484375
v -939.82568359375 610.83514404296875 1108.873291015625
# 16 vertices

vn 1 0 0
vn 0 0 -1
vn -1 0 0
vn 0 0 1
vn 0 1 0
vn 0 -1 0
# 6 normals

vt 0.02852296084166 0.76695787906647 0
vt 0.02852296084166 0.98319339752197 0
vt 0.5098472237587 0.98319339752197 0
vt 0.5098472237587 0.76695787906647 0
vt 0.86092287302017 0.27311193943024 0
vt 0.64468729496002 0.27311193943024 0
vt 0.64468729496002 0.5277892947197 0
vt 0.86092287302017 0.5277892947197 0
vt 0.43169450759888 0.54077112674713 0
vt 0.43169450759888 0.75700664520264 0
vt 0.91301882266998 0.75700664520264 0
vt 0.91301882266998 0.54077112674713 0
vt 0.86342960596085 0.00960278511047 0
vt 0.64719408750534 0.00960278511047 0
vt 0.64719408750534 0.26428020000458 0
vt 0.86342960596085 0.26428020000458 0
vt 0.27310061454773 0.02026677131653 0
vt 0.02438402920961 0.02059078216553 0
vt 0.02472941018641 0.50163930654526 0
vt 0.27344590425491 0.50131523609161 0
vt 0.30944830179214 0.49108994007111 0
vt 0.56412571668625 0.49108994007111 0
vt 0.56412571668625 0.009765625 0
vt 0.30944830179214 0.009765625 0
vt 0.28789868950844 0.00968194007874 0
vt 0.28291109204292 0.0146781206131 0
vt 0.2832139134407 0.50708758831024 0
vt 0.28820699453354 0.51207518577576 0
vt 0.01491887960583 0.5072278380394 0
vt 0.00993125326931 0.51222413778305 0
vt 0.01461606007069 0.0148184299469 0
vt 0.00962300878018 0.00983071327209 0
# 32 texture coordinates

o 立方体
usemtl material
f 3/4/1 4/3/1 2/2/1 1/1/1
f 5/8/2 6/7/2 4/6/2 3/5/2
f 7/12/3 8/11/3 6/10/3 5/9/3
f 1/16/4 2/15/4 8/14/4 7/13/4
f 14/20/5 15/19/5 16/18/5 13/17/5
f 5/24/6 3/23/6 1/22/6 7/21/6
f 4/28/5 10/27/5 9/26/5 2/25/5
f 6/30/5 11/29/5 10/27/5 4/28/5
f 8/32/5 12/31/5 11/29/5 6/30/5
f 2/25/5 9/26/5 12/31/5 8/32/5
f 10/27/3 14/20/3 13/17/3 9/26/3
f 11/29/4 15/19/4 14/20/4 10/27/4
f 12/31/1 16/18/1 15/19/1 11/29/1
f 9/26/2 13/17/2 16/18/2 12/31/2

