# WaveFront *.obj file (generated by CINEMA 4D)

mtllib ./qingyechi.mtl

v -579.15283203125 -342.26107788085938 3234.273681640625
v -637.22698974609375 400.33523559570312 3292.225341796875
v 579.15283203125 -342.26107788085938 3234.273681640625
v 637.22698974609375 400.33523559570312 3292.225341796875
v 579.15283203125 -342.26107788085938 -3234.273681640625
v 637.22698974609375 400.33523559570312 -3292.225341796875
v -579.15283203125 -342.26107788085938 -3234.273681640625
v -637.22698974609375 400.33523559570312 -3292.225341796875
v -637.22698974609375 -400.33523559570312 3292.225341796875
v -579.15283203125 400.33523559570312 3234.273681640625
v 637.22698974609375 -400.33523559570312 3292.225341796875
v 579.15283203125 400.33523559570312 3234.273681640625
v 637.22698974609375 -400.33523559570312 -3292.225341796875
v 579.15283203125 400.33523559570312 -3234.273681640625
v -637.22698974609375 -400.33523559570312 -3292.225341796875
v -579.15283203125 400.33523559570312 -3234.273681640625
v -579.15283203125 -371.29815673828125 3234.273681640625
v 579.15283203125 -371.29815673828125 3234.273681640625
v 579.15283203125 -371.29815673828125 -3234.273681640625
v -579.15283203125 -371.29815673828125 -3234.273681640625
# 20 vertices

vn 0 0 -1
vn -1 0 0
vn 0 0 1
vn 1 0 0
vn 0 1 0
vn 0 -1 0
# 6 normals

vt 0 0 0
vt 1 0 0
vt 1 1 0
vt 0 1 0
# 4 texture coordinates

o a
usemtl material
f 10/4/1 12/3/1 3/2/1 1/1/1
f 12/4/2 14/3/2 5/2/2 3/1/2
f 14/4/3 16/3/3 7/2/3 5/1/3
f 16/4/4 10/3/4 1/2/4 7/1/4
f 1/4/5 3/3/5 5/2/5 7/1/5
f 4/3/3 2/2/3 9/1/3 11/4/3
f 6/3/4 4/2/4 11/1/4 13/4/4
f 8/3/1 6/2/1 13/1/1 15/4/1
f 2/3/2 8/2/2 15/1/2 9/4/2
f 11/3/6 9/2/6 15/1/6 13/4/6
f 12/3/5 10/4/5 2/4/5 4/3/5
f 14/3/5 12/4/5 4/4/5 6/3/5
f 16/3/5 14/4/5 6/4/5 8/3/5
f 10/3/5 16/4/5 8/4/5 2/3/5
f 17/1/3 18/2/3 12/3/3 10/4/3
f 18/1/4 19/2/4 14/3/4 12/4/4
f 19/1/1 20/2/1 16/3/1 14/4/1
f 20/1/2 17/2/2 10/3/2 16/4/2
f 20/1/6 19/2/6 18/3/6 17/4/6
f 11/1/1 9/2/1 2/3/1 4/4/1
f 13/1/2 11/2/2 4/3/2 6/4/2
f 15/1/3 13/2/3 6/3/3 8/4/3
f 9/1/4 15/2/4 8/3/4 2/4/4
f 13/1/5 15/2/5 9/3/5 11/4/5
f 4/1/6 2/2/6 10/3/6 12/4/6
f 6/1/6 4/2/6 12/3/6 14/4/6
f 8/1/6 6/2/6 14/3/6 16/4/6
f 2/1/6 8/2/6 16/3/6 10/4/6

